<svg width="20" height="15" viewBox="0 0 20 15" fill="none" xmlns="http://www.w3.org/2000/svg">
<path d="M10 0C5.45455 0 1.57273 3.09369 0 7.46067C1.57273 11.8276 5.45455 14.9213 10 14.9213C14.55 14.9213 18.4273 11.8276 20 7.46067C18.4273 3.09369 14.55 0 10 0ZM10 12.4344C7.49091 12.4344 5.45455 10.2062 5.45455 7.46067C5.45455 4.71514 7.49091 2.48689 10 2.48689C12.5091 2.48689 14.5455 4.71514 14.5455 7.46067C14.5455 10.2062 12.5091 12.4344 10 12.4344ZM10 4.4764C8.49545 4.4764 7.27273 5.81435 7.27273 7.46067C7.27273 9.10699 8.49545 10.4449 10 10.4449C11.5045 10.4449 12.7273 9.10699 12.7273 7.46067C12.7273 5.81435 11.5045 4.4764 10 4.4764Z" fill="#11CD54"/>
</svg>
