<svg width="73" height="54" viewBox="0 0 73 54" fill="none" xmlns="http://www.w3.org/2000/svg">
<path d="M36.5 0C19.9091 0 5.74045 11.292 0 27.2314C5.74045 43.1709 19.9091 54.4629 36.5 54.4629C53.1075 54.4629 67.2595 43.1709 73 27.2314C67.2595 11.292 53.1075 0 36.5 0ZM36.5 45.3857C27.3418 45.3857 19.9091 37.2526 19.9091 27.2314C19.9091 17.2103 27.3418 9.07715 36.5 9.07715C45.6582 9.07715 53.0909 17.2103 53.0909 27.2314C53.0909 37.2526 45.6582 45.3857 36.5 45.3857ZM36.5 16.3389C31.0084 16.3389 26.5455 21.2224 26.5455 27.2314C26.5455 33.2405 31.0084 38.124 36.5 38.124C41.9916 38.124 46.4545 33.2405 46.4545 27.2314C46.4545 21.2224 41.9916 16.3389 36.5 16.3389Z" fill="#11CD54"/>
</svg>
