<svg width="100" height="107" viewBox="0 0 100 107" fill="none" xmlns="http://www.w3.org/2000/svg">
<path d="M43.3333 39.9998C42.6741 39.9998 42.0296 40.1953 41.4814 40.5616C40.9333 40.9279 40.506 41.4485 40.2537 42.0575C40.0014 42.6666 39.9354 43.3368 40.0641 43.9835C40.1927 44.6301 40.5101 45.224 40.9763 45.6902C41.4425 46.1563 42.0364 46.4738 42.683 46.6024C43.3296 46.731 43.9999 46.665 44.6089 46.4127C45.218 46.1604 45.7386 45.7332 46.1049 45.185C46.4712 44.6369 46.6667 43.9924 46.6667 43.3332C46.6667 42.4491 46.3155 41.6013 45.6904 40.9761C45.0652 40.351 44.2174 39.9998 43.3333 39.9998ZM93.8542 17.4333L53.8542 0.766663C52.6238 0.301449 51.3251 0.0424158 50.0104 0C48.6951 0.0415205 47.3957 0.299853 46.1646 0.76458L6.16459 17.4312C4.33832 18.1875 2.77763 19.4689 1.68022 21.113C0.582804 22.7571 -0.00195852 24.6899 4.92829e-06 26.6666C4.92829e-06 68.0205 23.8542 96.6079 46.1458 105.9C47.3644 106.406 48.671 106.667 49.9906 106.667C51.3102 106.667 52.6168 106.406 53.8354 105.9C71.6854 98.46 100 72.7705 100 26.6666C100.001 24.6928 99.4182 22.7628 98.3245 21.1197C97.2309 19.4767 95.6755 18.194 93.8542 17.4333ZM76.6667 53.3331H74.1417C68.2021 53.3331 65.2271 60.5143 69.4271 64.7143L71.2146 66.4997C71.8398 67.1249 72.191 67.9729 72.191 68.857C72.191 69.7412 71.8398 70.5891 71.2146 71.2143C70.5894 71.8395 69.7414 72.1907 68.8573 72.1907C67.9731 72.1907 67.1252 71.8395 66.5 71.2143L64.7146 69.4268C60.5146 65.2268 53.3333 68.2018 53.3333 74.1414V76.6663C53.3333 77.5504 52.9821 78.3982 52.357 79.0234C51.7319 79.6485 50.8841 79.9997 50 79.9997C49.1159 79.9997 48.2681 79.6485 47.643 79.0234C47.0179 78.3982 46.6667 77.5504 46.6667 76.6663V74.1414C46.6667 68.2018 39.4854 65.2268 35.2854 69.4268L33.5 71.2143C33.1904 71.5238 32.8229 71.7694 32.4185 71.9369C32.014 72.1045 31.5805 72.1907 31.1427 72.1907C30.7049 72.1907 30.2714 72.1045 29.867 71.9369C29.4625 71.7694 29.095 71.5238 28.7854 71.2143C28.4759 70.9047 28.2303 70.5372 28.0628 70.1328C27.8952 69.7283 27.809 69.2948 27.809 68.857C27.809 68.4192 27.8952 67.9857 28.0628 67.5813C28.2303 67.1768 28.4759 66.8093 28.7854 66.4997L30.5729 64.7143C34.7729 60.5143 31.7979 53.3331 25.8583 53.3331H23.3333C22.4493 53.3331 21.6014 52.9819 20.9763 52.3568C20.3512 51.7317 20 50.8838 20 49.9998C20 49.1157 20.3512 48.2679 20.9763 47.6428C21.6014 47.0177 22.4493 46.6665 23.3333 46.6665H25.8583C31.7979 46.6665 34.7729 39.4853 30.5729 35.2853L28.7854 33.4999C28.1602 32.8747 27.809 32.0267 27.809 31.1426C27.809 30.2584 28.1602 29.4105 28.7854 28.7853C29.4106 28.1601 30.2586 27.8089 31.1427 27.8089C32.0269 27.8089 32.8748 28.1601 33.5 28.7853L35.2854 30.5728C39.4854 34.7728 46.6667 31.7978 46.6667 25.8582V23.3332C46.6667 22.4492 47.0179 21.6013 47.643 20.9762C48.2681 20.3511 49.1159 19.9999 50 19.9999C50.8841 19.9999 51.7319 20.3511 52.357 20.9762C52.9821 21.6013 53.3333 22.4492 53.3333 23.3332V25.8582C53.3333 31.7978 60.5146 34.7728 64.7146 30.5728L66.5 28.7853C67.1252 28.1601 67.9731 27.8089 68.8573 27.8089C69.7414 27.8089 70.5894 28.1601 71.2146 28.7853C71.8398 29.4105 72.191 30.2584 72.191 31.1426C72.191 32.0267 71.8398 32.8747 71.2146 33.4999L69.4271 35.2853C65.2271 39.4853 68.2021 46.6665 74.1417 46.6665H76.6667C77.5507 46.6665 78.3986 47.0177 79.0237 47.6428C79.6488 48.2679 80 49.1157 80 49.9998C80 50.8838 79.6488 51.7317 79.0237 52.3568C78.3986 52.9819 77.5507 53.3331 76.6667 53.3331ZM56.6667 53.3331C56.0074 53.3331 55.3629 53.5286 54.8148 53.8949C54.2666 54.2611 53.8394 54.7817 53.5871 55.3908C53.3348 55.9999 53.2688 56.6701 53.3974 57.3167C53.526 57.9633 53.8435 58.5573 54.3096 59.0234C54.7758 59.4896 55.3698 59.8071 56.0164 59.9357C56.663 60.0643 57.3332 59.9983 57.9423 59.746C58.5514 59.4937 59.072 59.0665 59.4382 58.5183C59.8045 57.9702 60 57.3257 60 56.6664C60 55.7824 59.6488 54.9345 59.0237 54.3094C58.3986 53.6843 57.5507 53.3331 56.6667 53.3331Z" fill="#FFD700"/>
</svg>
